<svg xmlns="http://www.w3.org/2000/svg" viewBox="0 0 151.58 57.15">
	<title>INKFISH Logo</title>
  <path d="M133.51 16.86a8.2 8.2 0 0 1 2.91-2.51 9.86 9.86 0 0 1 2.11-.8c.79-.2 1.68-.33 2.67-.38a9.54 9.54 0 0 1 4.46.74 8.82 8.82 0 0 1 3.25 2.46 10.79 10.79 0 0 1 1.99 3.79c.45 1.46.68 3.03.68 4.69v14.86c0 .53-.13.94-.38 1.22s-.62.43-1.09.46l-3.39.17c-.59.03-.99-.06-1.19-.27-.2-.21-.3-.6-.3-1.17V25.17c0-.79-.14-1.54-.41-2.27a5.49 5.49 0 0 0-7.52-3.11 6.33 6.33 0 0 0-3.23 3.09 5.78 5.78 0 0 0-.56 2.46v14.55c0 .28-.01.57-.04.85s-.09.54-.19.77c-.1.23-.23.41-.41.56-.18.14-.41.22-.69.24l-3.68.19c-.49.03-.85-.07-1.08-.29-.23-.22-.35-.54-.35-.97V7.18c0-.39.12-.71.36-.98.24-.26.59-.41 1.05-.43l3.68-.19c.34-.02.65.1.94.34.28.25.42.55.42.9v10.03Z" class="cls-1"/>
  <path d="M103.05 36.88a16.4 16.4 0 0 1 13.03 1.3c.29.16.65.18.95.03.71-.36 1.35-.78 1.93-1.26a8.39 8.39 0 0 0 3.1-6.64c0-1.31-.23-2.44-.69-3.38a7.23 7.23 0 0 0-1.92-2.44 10.8 10.8 0 0 0-2.95-1.69c-1.14-.45-2.4-.83-3.76-1.14l-1.54-.37c-.55-.14-1.06-.31-1.52-.53s-.85-.49-1.16-.81a1.69 1.69 0 0 1-.46-1.24c0-.42.17-.84.44-1.19.23-.31.51-.58.84-.81a4.5 4.5 0 0 1 2.46-.84 5.45 5.45 0 0 1 2.52.44c.36.17.7.39 1.02.66.33.27.65.59.98.96.31.37.63.55.96.53.18 0 .4-.11.67-.3s.55-.42.85-.69l.9-.83.79-.71c.3-.25.45-.51.45-.78 0-.25-.11-.51-.33-.76a22.4 22.4 0 0 0-1.88-1.89 8.84 8.84 0 0 0-4.24-2.02c-.82-.14-1.75-.19-2.79-.14-1.47.08-2.81.34-4.02.8a10 10 0 0 0-3.11 1.82 7.72 7.72 0 0 0-2.72 6c0 1.07.16 2.05.49 2.94.33.89.84 1.69 1.55 2.42a9.63 9.63 0 0 0 2.71 1.88c1.1.53 2.43.96 3.99 1.3l1.9.44c.6.13 1.14.31 1.6.53s.84.51 1.11.87c.27.36.41.83.41 1.43s-.17 1.12-.52 1.53c-.35.41-.77.75-1.27 1-.5.26-1.03.44-1.59.56a5.3 5.3 0 0 1-2.55.11 7.05 7.05 0 0 1-2.89-1.24 4.38 4.38 0 0 1-1.18-1.21 3.9 3.9 0 0 0-.53-.54.8.8 0 0 0-.56-.18c-.18 0-.38.09-.6.23l-2.5 2.04c-.16.14-.29.29-.39.43a.9.9 0 0 0-.14.51c0 .3.11.63.33.99.44.76 1.33 2.05 1.83 1.9Z" class="cls-1"/>
  <path d="M94.92 41.8c.27-.21.43-.52.43-.85V12.46c0-.19-.04-.37-.13-.53a1.7 1.7 0 0 0-.33-.42 1.33 1.33 0 0 0-.96-.34l-3.7.19c-.43.02-.76.17-.98.44-.22.27-.33.6-.33.99v31.64c0 .83.94 1.27 1.62.75l4.4-3.37Z" class="cls-1"/>
  <path d="M120.34 51.93c0-.24 0-.48-.02-.72a11.98 11.98 0 0 0-5.24-9.32 12.91 12.91 0 0 0-11.13-1.57 13.86 13.86 0 0 0-4.31 2.29l-8.71 6.68c-.74.57-1.49.97-2.21 1.2a6.8 6.8 0 0 1-5.8-.83 6 6 0 0 1-2.65-4.7l-.01-.39v-1.49l-.01-18.12 3.23-.17c.43-.02.77-.17 1-.44.24-.27.36-.67.36-1.19v-2.74c0-.52-.12-.89-.36-1.1-.24-.21-.57-.3-1-.28l-3.23.17V15.6c0-.5.11-.95.33-1.33a3.4 3.4 0 0 1 1.78-1.52c.34-.13.62-.2.85-.21.4-.02.72-.19.95-.49.23-.31.35-.68.35-1.11V7.87c0-.45-.12-.79-.36-1.04s-.57-.36-1-.34h-.22a8.92 8.92 0 0 0-6.66 3.43c-.77.98-1.36 2.09-1.76 3.33s-.6 2.53-.6 3.85v2.45l-2.21.11c-.43.02-.78.15-1.05.39-.27.24-.4.61-.4 1.13v2.74c0 .52.13.9.4 1.15.27.25.62.36 1.05.34l2.21-.11v18.56l.01.19v.9l.03.72a12 12 0 0 0 5.24 9.32 12.64 12.64 0 0 0 7.82 2.16c1.1-.06 2.21-.25 3.31-.59a13.86 13.86 0 0 0 4.31-2.29l8.71-6.68a7.32 7.32 0 0 1 2.21-1.2 6.8 6.8 0 0 1 5.8.83 6 6 0 0 1 2.65 4.7l.01.39v1.91c.02.56.48.99 1.04.96l4.3-.25a1.08 1.08 0 0 0 1.01-1.08v-1.91Z" class="cls-1"/>
  <path d="M68.97 44.43a1.33 1.33 0 0 0-.35-.52h.04L56.78 29.86l10-10.96c.12-.15.2-.29.25-.41.04-.12.07-.26.07-.4a.6.6 0 0 0-.25-.52c-.16-.13-.41-.18-.74-.16l-5.1.26a1.6 1.6 0 0 0-.72.19c-.2.11-.4.27-.59.48l-9.8 11.11s.1-17.6-.17-18.99a11.91 11.91 0 0 0-5.12-8.26A12.84 12.84 0 0 0 33.5.61a13.86 13.86 0 0 0-4.31 2.29l-8.71 6.68c-.74.57-1.49.97-2.21 1.2a6.8 6.8 0 0 1-5.8-.83 6 6 0 0 1-2.65-4.7l-.01-.39V2.95a.98.98 0 0 0-1.04-.96l-4.3.25c-.56.03-1.02.52-1.01 1.08v1.91l.04.71a11.98 11.98 0 0 0 5.24 9.32 12.64 12.64 0 0 0 7.82 2.16c1.1-.06 2.21-.25 3.31-.59a13.86 13.86 0 0 0 4.31-2.29l8.71-6.68a7.32 7.32 0 0 1 2.21-1.2 6.8 6.8 0 0 1 5.8.83 5.94 5.94 0 0 1 2.63 4.57v33.55c0 .09.02.2.07.34a1.22 1.22 0 0 0 .6.71c.15.08.33.12.56.11l3.94-.2c.24-.01.44-.07.6-.16s.29-.22.39-.35c.1-.14.17-.29.21-.45.04-.16.07-.3.07-.44v-8.02l2.67-2.92 8.62 10.76c.4.6.82.89 1.25.87l5.68-.29c.3-.02.52-.07.67-.17.15-.1.22-.27.22-.52 0-.12-.03-.27-.1-.46Z" class="cls-1"/>
  <path d="M35.52 22.12a9.34 9.34 0 0 0-3.45-2.42c-1.37-.56-2.93-.8-4.68-.71-1.1.06-2.09.23-2.96.51a10.07 10.07 0 0 0-4.11 2.47c-.5.52-.92 1.04-1.26 1.56l-.07-1.71a.95.95 0 0 0-1.1-.91 16.28 16.28 0 0 1-3.54.09 1.08 1.08 0 0 0-1.15 1.07v25.01c0 .43.12.76.35.97.23.22.59.32 1.08.29l3.68-.19c.28-.01.51-.09.69-.24.18-.14.32-.33.41-.56.1-.23.16-.48.19-.77.03-.28.04-.57.04-.85V31.29c.01-.91.22-1.73.62-2.47a6.98 6.98 0 0 1 3.54-3.19 6.2 6.2 0 0 1 4.76-.12c.76.32 1.39.76 1.9 1.33.51.57.9 1.22 1.17 1.96.27.74.4 1.5.4 2.29v14.84c0 .56.1.95.3 1.17.2.21.6.3 1.19.27l3.39-.17c.48-.02.84-.18 1.09-.46s.38-.69.38-1.22V30.66c0-1.71-.24-3.29-.72-4.75a10.49 10.49 0 0 0-2.13-3.77Z" class="cls-1"/>
  <path d="M1.35 12.14c-.54-.19-.91.11-1.13.51S0 13.53 0 13.98v33.93c0 .25 0 .52.14.73.23.34.71.37 1.13.37 1.22-.01 2.45-.09 3.67-.21.38-.04.91-.02 1.22-.31.29-.26.26-.69.26-1.03V19.08c0-.26 0-.53-.1-.77a2 2 0 0 0-.75-.83c-2.47-1.76-3.83-5.07-4.25-5.36Z" class="cls-1"/>
</svg>
