<svg xmlns="http://www.w3.org/2000/svg" viewBox="0 0 512 512">
  <path fill="#ffb600" d="M204 398c21-8 43-7 61 2h5l9-6c4-4 8-9 10-14a41 41 0 0 0 1-34c-2-4-5-8-9-11l-14-7a122 122 0 0 0-25-6l-7-2-5-3c-2-2-2-4-2-6s0-4 2-6l4-4 5-3a24 24 0 0 1 13-1 21 21 0 0 1 10 4l4 4c2 2 3 2 5 2l3-1 4-4a375 375 0 0 0 10-11l-2-4-8-8a39 39 0 0 0-20-8h-13c-7 0-14 2-19 5a41 41 0 0 0-24 22c-2 5-3 10-3 16 0 5 0 9 2 13 1 5 4 8 7 11 3 4 8 6 13 9l18 5a523 523 0 0 0 17 3l5 4 2 6-2 8-6 5-8 3-7 1h-5a31 31 0 0 1-13-5c-3-1-4-3-6-5l-2-3h-3l-3 1-11 10-2 2-1 3 2 4c2 4 6 10 8 9m143-103a49 49 0 0 1 13-12l10-4c4-2 8-3 13-3 8-1 15 0 21 2a42 42 0 0 1 24 28c2 7 3 14 3 22v70l-1 6-6 2-15 2-6-1-1-6v-70l-2-10c-2-4-3-7-6-9a24 24 0 0 0-20-7l-10 3a33 33 0 0 0-15 16l-2 11v73l-1 3-2 3-3 1-18 2-5-1-1-4V263l1-5 5-2 17-2 5 1 2 4z"/>
  <path fill="#ffb600" d="M285 464v-4c-1-17-10-33-25-42s-34-11-52-4c-7 2-13 6-20 12l-41 33-10 7c-9 3-19 2-27-3a26 26 0 0 1-12-23l-1-7v-85l16-2 4-2 2-6v-13l-2-5-4-1-16 2v-17l2-6a18 18 0 0 1 12-9c2 0 4-1 5-3l1-5v-15l-1-4-5-2h-1c-7 1-13 3-18 6s-10 7-13 12c-4 5-7 10-8 16-2 6-3 12-3 19v11l-11 1-4 2c-2 2-2 3-2 6v13c0 2 0 4 2 5 1 1 2 2 4 1l11-1v96c1 18 10 33 24 42 11 7 24 10 37 8a65 65 0 0 0 36-15l40-34c4-3 7-5 11-6 9-4 19-3 27 2a26 26 0 0 1 12 23v9c1 3 3 5 5 4l20-2c3 0 5-3 5-5z"/>
  <path fill="#ffb600" d="m166 423 2-4V285l-1-2-1-2-2-1-3-1-17 2-4 3c-2 1-2 3-2 4v149c0 4 4 6 8 3zm134-302c-4-4-9-8-16-10a56 56 0 0 0-47 7 46 46 0 0 0-14 14v-7c0-3-2-4-5-4l-6 1h-11c-3 0-5 2-5 5v118c0 2 0 3 2 4l5 1 17-2 3-1 2-3 1-3v-72l3-12a35 35 0 0 1 17-16l9-3 13 1 9 6c2 2 4 5 5 9l2 10v70l1 6h6l16-1c2 0 4-1 5-3l2-6v-69c0-8-1-16-4-22-2-7-5-13-10-18"/>
  <path fill="#ffb600" d="m461 217-2-3-55-62 47-55 1-2v-2l-1-2-3-1-24 3-4 1-2 3-46 54-1-89c-2-16-11-29-24-37a59 59 0 0 0-52-5c-7 3-14 7-20 12l-41 34-10 6c-10 4-20 3-28-2a26 26 0 0 1-12-23v-9c0-3-2-5-5-4l-20 2c-3 0-5 3-5 5v13c1 18 10 33 25 42 11 7 24 9 36 8a65 65 0 0 0 36-16l41-33 10-7c9-3 20-2 27 3 8 4 12 12 13 21v159l1 2 2 1h2l19-2a6 6 0 0 0 5-2 8 8 0 0 0 1-5v-37l12-15 41 48c2 3 4 4 6 4l26-3 3-1 1-2v-2M144 83c-2 0-4 1-5 3l-1 6v160l1 3c1 2 3 2 5 2l17-2 6-2 1-5V111l-4-4c-11-7-18-22-20-24"/>
  <path fill="#ffb600" d="M489 0 371 13c-4 0-5 5-3 7 5 5 9 11 12 18 1 2 4 4 7 3l95-10v395l-34 4c-13 1-23 13-23 26v22l-73-35h-1c-3-2-7-2-10-2l-37 5c-3 0-4 2-4 4a72 72 0 0 1 1 12v9c0 2 2 5 5 4l33-3 81 38 1 1 10 1c4-1 9-2 13-5 6-5 10-13 10-21v-27l35-4c13-1 23-13 23-26V21c0-13-10-22-23-21M52 473l-22 2V80l107-11 3-4a72 72 0 0 1-2-13v-9c0-2-2-4-4-4L23 51C10 52 0 64 0 77v408c0 13 10 23 23 21l45-5c4 0 6-5 3-7l-11-16c-2-3-5-5-8-5"/>
</svg>
